<svg xmlns="http://www.w3.org/2000/svg" width="1400" height="820" viewBox="0 0 1400 820" role="img" aria-labelledby="title desc">
  <title id="title">Pynmon monitoring screenshot placeholder</title>
  <desc id="desc">Placeholder graphic for a future monitoring screenshot in a publication article.</desc>
  <defs>
    <linearGradient id="bg" x1="0" y1="0" x2="1" y2="1">
      <stop offset="0%" stop-color="#f3f6fa" />
      <stop offset="100%" stop-color="#e6ecf5" />
    </linearGradient>
    <linearGradient id="panel" x1="0" y1="0" x2="0" y2="1">
      <stop offset="0%" stop-color="#ffffff" />
      <stop offset="100%" stop-color="#f8fbff" />
    </linearGradient>
  </defs>

  <rect width="1400" height="820" fill="url(#bg)" />
  <rect x="36" y="28" width="1328" height="764" rx="18" fill="url(#panel)" stroke="#c9d7ea" stroke-width="2" />

  <rect x="36" y="28" width="1328" height="64" rx="18" fill="#1e293b" />
  <circle cx="72" cy="60" r="10" fill="#ef4444" />
  <circle cx="102" cy="60" r="10" fill="#f59e0b" />
  <circle cx="132" cy="60" r="10" fill="#10b981" />
  <text x="190" y="66" font-family="Arial, sans-serif" font-size="24" font-weight="700" fill="#e2e8f0">Pynmon Monitoring</text>

  <rect x="70" y="124" width="1260" height="134" rx="10" fill="#f1f5f9" stroke="#d6e1f0" />
  <text x="96" y="163" font-family="Arial, sans-serif" font-size="18" font-weight="700" fill="#0f172a">Recovery Demo Timeline</text>
  <rect x="96" y="184" width="420" height="12" rx="6" fill="#94a3b8" opacity="0.45" />
  <rect x="96" y="206" width="680" height="12" rx="6" fill="#94a3b8" opacity="0.35" />

  <rect x="70" y="284" width="860" height="470" rx="10" fill="#ffffff" stroke="#d6e1f0" />
  <text x="96" y="324" font-family="Arial, sans-serif" font-size="17" font-weight="700" fill="#0f172a">Runner Activity</text>

  <line x1="124" y1="360" x2="870" y2="360" stroke="#dbe5f2" stroke-width="2" />
  <line x1="124" y1="420" x2="870" y2="420" stroke="#dbe5f2" stroke-width="2" />
  <line x1="124" y1="480" x2="870" y2="480" stroke="#dbe5f2" stroke-width="2" />
  <line x1="124" y1="540" x2="870" y2="540" stroke="#dbe5f2" stroke-width="2" />

  <rect x="210" y="344" width="250" height="32" rx="8" fill="#3b82f6" opacity="0.8" />
  <rect x="488" y="344" width="210" height="32" rx="8" fill="#22c55e" opacity="0.82" />
  <rect x="290" y="404" width="220" height="32" rx="8" fill="#f97316" opacity="0.84" />
  <rect x="542" y="404" width="190" height="32" rx="8" fill="#22c55e" opacity="0.82" />
  <rect x="236" y="464" width="280" height="32" rx="8" fill="#3b82f6" opacity="0.8" />
  <rect x="548" y="464" width="236" height="32" rx="8" fill="#22c55e" opacity="0.82" />

  <rect x="964" y="284" width="366" height="470" rx="10" fill="#ffffff" stroke="#d6e1f0" />
  <text x="988" y="324" font-family="Arial, sans-serif" font-size="17" font-weight="700" fill="#0f172a">Invocation Details</text>

  <rect x="988" y="350" width="318" height="84" rx="8" fill="#ecfdf5" stroke="#bbf7d0" />
  <text x="1008" y="386" font-family="Arial, sans-serif" font-size="15" fill="#166534">State: RECOVERED</text>
  <text x="1008" y="412" font-family="Arial, sans-serif" font-size="14" fill="#14532d">Owner switched to Worker-2</text>

  <rect x="988" y="454" width="318" height="274" rx="8" fill="#f8fafc" stroke="#e2e8f0" />
  <rect x="1008" y="478" width="278" height="10" rx="5" fill="#94a3b8" opacity="0.4" />
  <rect x="1008" y="500" width="250" height="10" rx="5" fill="#94a3b8" opacity="0.35" />
  <rect x="1008" y="542" width="278" height="10" rx="5" fill="#94a3b8" opacity="0.4" />
  <rect x="1008" y="564" width="250" height="10" rx="5" fill="#94a3b8" opacity="0.35" />
  <rect x="1008" y="606" width="278" height="10" rx="5" fill="#94a3b8" opacity="0.4" />
  <rect x="1008" y="628" width="250" height="10" rx="5" fill="#94a3b8" opacity="0.35" />
  <rect x="1008" y="670" width="278" height="10" rx="5" fill="#94a3b8" opacity="0.4" />

  <rect x="70" y="764" width="1260" height="16" rx="8" fill="#e2e8f0" />
  <text x="700" y="620" text-anchor="middle" font-family="Arial, sans-serif" font-size="34" font-weight="700" fill="#1e293b" opacity="0.28">Screenshot Placeholder</text>
  <text x="700" y="662" text-anchor="middle" font-family="Arial, sans-serif" font-size="18" fill="#334155" opacity="0.44">Replace with a real Pynmon monitoring capture</text>
</svg>
